<?xml version="1.0" encoding="UTF-8" standalone="no"?><svg xmlns="http://www.w3.org/2000/svg" xmlns:xlink="http://www.w3.org/1999/xlink" contentScriptType="application/ecmascript" contentStyleType="text/css" height="534px" preserveAspectRatio="none" style="width:927px;height:534px;" version="1.1" viewBox="0 0 927 534" width="927px" zoomAndPan="magnify"><defs><filter height="300%" id="f155jmp5g7kl8u" width="300%" x="-1" y="-1"><feGaussianBlur result="blurOut" stdDeviation="6.0"/><feColorMatrix in="blurOut" result="blurOut2" type="matrix" values="0 0 0 0 0 0 0 0 0 0 0 0 0 0 0 0 0 0 .4 0"/><feOffset dx="12.0" dy="12.0" in="blurOut2" result="blurOut3"/><feBlend in="SourceGraphic" in2="blurOut3" mode="normal"/></filter></defs><g><!--MD5=[43c4f1b3c93e781c7714811715426fc2]
entity ECS--><rect fill="#FEFECE" filter="url(#f155jmp5g7kl8u)" height="138.8906" style="stroke: #A80036; stroke-width: 4.5;" width="204" x="202.5" y="339"/><rect fill="#FEFECE" height="30" style="stroke: #A80036; stroke-width: 4.5;" width="45" x="346.5" y="354"/><rect fill="#FEFECE" height="6" style="stroke: #A80036; stroke-width: 4.5;" width="12" x="340.5" y="360"/><rect fill="#FEFECE" height="6" style="stroke: #A80036; stroke-width: 4.5;" width="12" x="340.5" y="372"/><text fill="#000000" font-family="sans-serif" font-size="42" lengthAdjust="spacingAndGlyphs" textLength="84" x="247.5" y="437.9854">ECS</text><!--MD5=[212dc5bfa2e76fddaeb45b0292bdf092]
entity GameEngine--><rect fill="#FEFECE" filter="url(#f155jmp5g7kl8u)" height="138.8906" style="stroke: #A80036; stroke-width: 4.5;" width="405" x="21" y="21"/><rect fill="#FEFECE" height="30" style="stroke: #A80036; stroke-width: 4.5;" width="45" x="366" y="36"/><rect fill="#FEFECE" height="6" style="stroke: #A80036; stroke-width: 4.5;" width="12" x="360" y="42"/><rect fill="#FEFECE" height="6" style="stroke: #A80036; stroke-width: 4.5;" width="12" x="360" y="54"/><text fill="#000000" font-family="sans-serif" font-size="42" lengthAdjust="spacingAndGlyphs" textLength="285" x="66" y="119.9854">Game Engine</text><!--MD5=[854490cbfb8eedee4432d73740ee6d75]
entity View--><rect fill="#FEFECE" filter="url(#f155jmp5g7kl8u)" height="138.8906" style="stroke: #A80036; stroke-width: 4.5;" width="222" x="589.5" y="339"/><rect fill="#FEFECE" height="30" style="stroke: #A80036; stroke-width: 4.5;" width="45" x="751.5" y="354"/><rect fill="#FEFECE" height="6" style="stroke: #A80036; stroke-width: 4.5;" width="12" x="745.5" y="360"/><rect fill="#FEFECE" height="6" style="stroke: #A80036; stroke-width: 4.5;" width="12" x="745.5" y="372"/><text fill="#000000" font-family="sans-serif" font-size="42" lengthAdjust="spacingAndGlyphs" textLength="102" x="634.5" y="437.9854">View</text><!--MD5=[f855680bc6c989572ebb25245d27968d]
entity Controller--><rect fill="#FEFECE" filter="url(#f155jmp5g7kl8u)" height="138.8906" style="stroke: #A80036; stroke-width: 4.5;" width="339" x="531" y="21"/><rect fill="#FEFECE" height="30" style="stroke: #A80036; stroke-width: 4.5;" width="45" x="810" y="36"/><rect fill="#FEFECE" height="6" style="stroke: #A80036; stroke-width: 4.5;" width="12" x="804" y="42"/><rect fill="#FEFECE" height="6" style="stroke: #A80036; stroke-width: 4.5;" width="12" x="804" y="54"/><text fill="#000000" font-family="sans-serif" font-size="42" lengthAdjust="spacingAndGlyphs" textLength="219" x="576" y="119.9854">Controller</text><!--MD5=[11bb45a65f64fb6da34ac46df45ff37d]
link GameEngine to Controller--><path d="M426.597,90 C447.948,90 469.299,90 490.65,90 " fill="none" id="GameEngine-to-Controller" style="stroke: #A80036; stroke-width: 3.0;"/><polygon fill="#FFFFFF" points="530.382,90,512.382,78,494.382,90,512.382,102,530.382,90" style="stroke: #A80036; stroke-width: 3.0;"/><!--MD5=[609ce60c6f9c2555e0ad1b6a2082a989]
reverse link GameEngine to ECS--><path d="M250.7316,197.8926 C262.8369,244.5204 276.72,297.996 287.3466,338.9283 " fill="none" id="GameEngine-backto-ECS" style="stroke: #A80036; stroke-width: 3.0;"/><polygon fill="#FFFFFF" points="240.678,159.168,233.5864,179.6059,249.7247,194.0128,256.8163,173.5748,240.678,159.168" style="stroke: #A80036; stroke-width: 3.0;"/><!--MD5=[7e1a56604c17615e4da439b139121f5d]
reverse link Controller to View--><path d="M664.029,199.3077 C660.606,245.5992 662.121,298.4097 668.577,338.9283 " fill="none" id="Controller-backto-View" style="stroke: #A80036; stroke-width: 3.0;"/><polygon fill="#FFFFFF" points="668.562,159.168,654.6179,175.7077,664.5223,194.9406,678.4664,178.4009,668.562,159.168" style="stroke: #A80036; stroke-width: 3.0;"/><!--MD5=[01a2e04289eefa46970f9de88ad0aba9]
link Controller to View--><path d="M734.316,159.168 C741.144,199.7052 742.74,252.5199 739.107,298.8012 " fill="none" id="Controller-to-View" style="stroke: #A80036; stroke-width: 3.0;"/><polygon fill="#FFFFFF" points="734.301,338.9283,748.3569,322.4835,738.5831,303.1839,724.5273,319.6287,734.301,338.9283" style="stroke: #A80036; stroke-width: 3.0;"/><!--MD5=[41bb4685b2d7cf514f37cea28be2d09f]
reverse link ECS to View--><path d="M446.526,408 C494.061,408 541.599,408 589.137,408 " fill="none" id="ECS-backto-View" style="stroke: #A80036; stroke-width: 3.0;"/><polygon fill="#FFFFFF" points="406.593,408,424.593,420,442.593,408,424.593,396,406.593,408" style="stroke: #A80036; stroke-width: 3.0;"/><!--MD5=[27753ee3807fd5ce702dc2098d59eb6d]
@startuml
scale 3
hide fields
hide members
hide circle

component "ECS" as ECS
component "Game Engine" as GameEngine
component View
component Controller  


Controller o-left- GameEngine
GameEngine o-down- ECS
Controller o-down- View
View o-up- Controller
ECS o-right- View
@enduml

PlantUML version 1.2020.17beta5(Unknown compile time)
(GPL source distribution)
Java Runtime: Java(TM) SE Runtime Environment
JVM: Java HotSpot(TM) 64-Bit Server VM
Default Encoding: UTF-8
Language: en
Country: US
--></g></svg>