<?xml version="1.0" encoding="UTF-8" standalone="no"?><svg xmlns="http://www.w3.org/2000/svg" xmlns:xlink="http://www.w3.org/1999/xlink" contentScriptType="application/ecmascript" contentStyleType="text/css" height="579px" preserveAspectRatio="none" style="width:927px;height:579px;" version="1.1" viewBox="0 0 927 579" width="927px" zoomAndPan="magnify"><defs><filter height="300%" id="fydy190gw6nw0" width="300%" x="-1" y="-1"><feGaussianBlur result="blurOut" stdDeviation="6.0"/><feColorMatrix in="blurOut" result="blurOut2" type="matrix" values="0 0 0 0 0 0 0 0 0 0 0 0 0 0 0 0 0 0 .4 0"/><feOffset dx="12.0" dy="12.0" in="blurOut2" result="blurOut3"/><feBlend in="SourceGraphic" in2="blurOut3" mode="normal"/></filter></defs><g><!--MD5=[86cbce8df1eb9d604fbbb2fa357940f8]
cluster view--><polygon fill="#FFFFFF" filter="url(#fydy190gw6nw0)" points="48,18,420,18,441,84.8906,861,84.8906,861,543,48,543,48,18" style="stroke: #000000; stroke-width: 4.5;"/><line style="stroke: #000000; stroke-width: 4.5;" x1="48" x2="441" y1="84.8906" y2="84.8906"/><text fill="#000000" font-family="sans-serif" font-size="42" font-weight="bold" lengthAdjust="spacingAndGlyphs" textLength="354" x="60" y="62.9854">akka_raft.view</text><!--MD5=[eea702fd2901027d5b223dc6a51d377b]
class ClientObserver--><rect codeLine="7" fill="#FEFECE" filter="url(#fydy190gw6nw0)" height="96" id="ClientObserver" style="stroke: #A80036; stroke-width: 4.5;" width="360" x="453" y="399"/><ellipse cx="498" cy="447" fill="#B4A7E5" rx="33" ry="33" style="stroke: #A80036; stroke-width: 3.0;"/><path d="M500.8594,437.3438 L506.0156,437.3438 C507.1875,437.3438 507.75,437.25 508.125,437.0156 C508.9219,436.5469 509.3438,435.7031 509.3438,434.8125 C509.3438,434.0156 509.0156,433.2188 508.3125,432.7031 C507.7969,432.375 507.375,432.2813 506.0156,432.2813 L490.5938,432.2813 C489.2813,432.2813 488.9063,432.3281 488.4375,432.6094 C487.6875,433.0781 487.2188,433.9688 487.2188,434.8125 C487.2188,435.6563 487.6406,436.4063 488.2969,436.9219 C488.7656,437.25 489.3281,437.3438 490.5938,437.3438 L495.75,437.3438 L495.75,456.8906 L490.5938,456.8906 C489.2813,456.8906 488.9063,456.9375 488.4375,457.2656 C487.6875,457.7344 487.2188,458.5781 487.2188,459.4688 C487.2188,460.2188 487.6406,461.0156 488.2969,461.4844 C488.7656,461.8594 489.375,462 490.5938,462 L506.0156,462 C508.2656,462 509.3438,461.1563 509.3438,459.4688 C509.3438,458.625 509.0156,457.875 508.3125,457.3594 C507.7969,456.9844 507.375,456.8906 506.0156,456.8906 L500.8594,456.8906 L500.8594,437.3438 Z "/><text fill="#000000" font-family="sans-serif" font-size="36" font-style="italic" lengthAdjust="spacingAndGlyphs" textLength="264" x="540" y="459.4629">ClientObserver</text><!--MD5=[a7c44f20c0375d7bfa993e915de2b83b]
class MainScreenView--><rect codeLine="8" fill="#FEFECE" filter="url(#fydy190gw6nw0)" height="96" id="MainScreenView" style="stroke: #A80036; stroke-width: 4.5;" width="393" x="97.5" y="123"/><ellipse cx="142.5" cy="171" fill="#ADD1B2" rx="33" ry="33" style="stroke: #A80036; stroke-width: 3.0;"/><path d="M149.5313,158.0156 C146.7188,156.7031 144.9375,156.2813 142.3125,156.2813 C134.4375,156.2813 128.4375,162.5156 128.4375,170.6719 L128.4375,174.0469 C128.4375,181.7813 134.7656,187.4531 143.4375,187.4531 C147.0938,187.4531 150.5625,186.5625 152.8125,184.9219 C154.5469,183.7031 155.5313,182.3438 155.5313,181.1719 C155.5313,179.8125 154.3594,178.6406 152.9531,178.6406 C152.2969,178.6406 151.6875,178.875 151.125,179.4375 C149.7656,180.8906 149.7656,180.8906 149.2031,181.1719 C147.9375,181.9688 145.875,182.3438 143.5781,182.3438 C137.4375,182.3438 133.5469,179.0625 133.5469,173.9531 L133.5469,170.6719 C133.5469,165.3281 137.2969,161.3906 142.5,161.3906 C144.2344,161.3906 146.0625,161.8594 147.4688,162.6094 C148.9219,163.4531 149.4375,164.1094 149.7188,165.3281 C149.9063,166.5469 150,166.9219 150.4219,167.2969 C150.8438,167.7188 151.5469,168.0469 152.2031,168.0469 C153,168.0469 153.7969,167.625 154.3125,166.9688 C154.6406,166.5 154.7344,165.9375 154.7344,164.6719 L154.7344,160.4063 C154.7344,159.0938 154.6875,158.7188 154.4063,158.25 C153.9375,157.4531 153.0938,157.0313 152.2031,157.0313 C151.3125,157.0313 150.7031,157.3125 150.0469,158.25 L149.5313,158.0156 Z "/><text fill="#000000" font-family="sans-serif" font-size="36" lengthAdjust="spacingAndGlyphs" textLength="297" x="184.5" y="183.4629">MainScreenView</text><!--MD5=[ed6624c6556d5e7b1bd23032162d20b7]
class Client--><rect codeLine="9" fill="#FEFECE" filter="url(#fydy190gw6nw0)" height="96" id="Client" style="stroke: #A80036; stroke-width: 4.5;" width="195" x="595.5" y="123"/><ellipse cx="640.5" cy="171" fill="#ADD1B2" rx="33" ry="33" style="stroke: #A80036; stroke-width: 3.0;"/><path d="M647.5313,158.0156 C644.7188,156.7031 642.9375,156.2813 640.3125,156.2813 C632.4375,156.2813 626.4375,162.5156 626.4375,170.6719 L626.4375,174.0469 C626.4375,181.7813 632.7656,187.4531 641.4375,187.4531 C645.0938,187.4531 648.5625,186.5625 650.8125,184.9219 C652.5469,183.7031 653.5313,182.3438 653.5313,181.1719 C653.5313,179.8125 652.3594,178.6406 650.9531,178.6406 C650.2969,178.6406 649.6875,178.875 649.125,179.4375 C647.7656,180.8906 647.7656,180.8906 647.2031,181.1719 C645.9375,181.9688 643.875,182.3438 641.5781,182.3438 C635.4375,182.3438 631.5469,179.0625 631.5469,173.9531 L631.5469,170.6719 C631.5469,165.3281 635.2969,161.3906 640.5,161.3906 C642.2344,161.3906 644.0625,161.8594 645.4688,162.6094 C646.9219,163.4531 647.4375,164.1094 647.7188,165.3281 C647.9063,166.5469 648,166.9219 648.4219,167.2969 C648.8438,167.7188 649.5469,168.0469 650.2031,168.0469 C651,168.0469 651.7969,167.625 652.3125,166.9688 C652.6406,166.5 652.7344,165.9375 652.7344,164.6719 L652.7344,160.4063 C652.7344,159.0938 652.6875,158.7188 652.4063,158.25 C651.9375,157.4531 651.0938,157.0313 650.2031,157.0313 C649.3125,157.0313 648.7031,157.3125 648.0469,158.25 L647.5313,158.0156 Z "/><text fill="#000000" font-family="sans-serif" font-size="36" lengthAdjust="spacingAndGlyphs" textLength="99" x="682.5" y="183.4629">Client</text><!--MD5=[45e244e688648429b3d4d1bd92760c07]
class ActorRef--><rect codeLine="10" fill="#FEFECE" filter="url(#fydy190gw6nw0)" height="96" id="ActorRef" style="stroke: #A80036; stroke-width: 4.5;" width="249" x="97.5" y="399"/><ellipse cx="142.5" cy="447" fill="#B4A7E5" rx="33" ry="33" style="stroke: #A80036; stroke-width: 3.0;"/><path d="M145.3594,437.3438 L150.5156,437.3438 C151.6875,437.3438 152.25,437.25 152.625,437.0156 C153.4219,436.5469 153.8438,435.7031 153.8438,434.8125 C153.8438,434.0156 153.5156,433.2188 152.8125,432.7031 C152.2969,432.375 151.875,432.2813 150.5156,432.2813 L135.0938,432.2813 C133.7813,432.2813 133.4063,432.3281 132.9375,432.6094 C132.1875,433.0781 131.7188,433.9688 131.7188,434.8125 C131.7188,435.6563 132.1406,436.4063 132.7969,436.9219 C133.2656,437.25 133.8281,437.3438 135.0938,437.3438 L140.25,437.3438 L140.25,456.8906 L135.0938,456.8906 C133.7813,456.8906 133.4063,456.9375 132.9375,457.2656 C132.1875,457.7344 131.7188,458.5781 131.7188,459.4688 C131.7188,460.2188 132.1406,461.0156 132.7969,461.4844 C133.2656,461.8594 133.875,462 135.0938,462 L150.5156,462 C152.7656,462 153.8438,461.1563 153.8438,459.4688 C153.8438,458.625 153.5156,457.875 152.8125,457.3594 C152.2969,456.9844 151.875,456.8906 150.5156,456.8906 L145.3594,456.8906 L145.3594,437.3438 Z "/><text fill="#000000" font-family="sans-serif" font-size="36" font-style="italic" lengthAdjust="spacingAndGlyphs" textLength="153" x="184.5" y="459.4629">ActorRef</text><!--MD5=[cd226bddeebe25dafc3e5e718c2cd379]
link MainScreenView to ClientObserver--><path codeLine="13" d="M350.742,219.192 C399.141,257.739 469.989,314.1684 528.594,360.8457 " fill="none" id="MainScreenView-&gt;ClientObserver" style="stroke: #A80036; stroke-width: 3.0;"/><polygon fill="none" points="542.223,344.8536,576.075,398.6607,516.057,377.7069,542.223,344.8536" style="stroke: #A80036; stroke-width: 3.0;"/><!--MD5=[8a5ac757576268e2a69c7d6b95b294a5]
link Client to ClientObserver--><path codeLine="14" d="M682.821,219.801 C674.322,258.045 661.983,313.5747 651.711,359.8005 " fill="none" id="Client-&gt;ClientObserver" style="stroke: #A80036; stroke-width: 3.0; stroke-dasharray: 7.0,7.0;"/><polygon fill="#FFFFFF" points="643.029,398.8746,658.6482,383.9066,650.8389,363.7319,635.2197,378.7,643.029,398.8746" style="stroke: #A80036; stroke-width: 3.0;"/><!--MD5=[bccbf975e1ae3388fa2e9b9828ce1ea6]
link Client to ActorRef--><path codeLine="15" d="M614.166,219.192 C543.183,259.881 437.451,320.4933 353.652,368.5302 " fill="none" id="Client-&gt;ActorRef" style="stroke: #A80036; stroke-width: 3.0;"/><polygon fill="none" points="363.591,387.0396,301.092,398.6607,342.702,350.6019,363.591,387.0396" style="stroke: #A80036; stroke-width: 3.0;"/><!--MD5=[dcbe11ca65084f36a66b63fd250d680b]
link MainScreenView to ActorRef--><path codeLine="16" d="M281.7861,219.801 C271.5879,258.045 256.7802,313.5747 244.4532,359.8005 " fill="none" id="MainScreenView-&gt;ActorRef" style="stroke: #A80036; stroke-width: 3.0; stroke-dasharray: 7.0,7.0;"/><polygon fill="#FFFFFF" points="234.0333,398.8746,250.266,384.5743,243.3091,364.0901,227.0764,378.3904,234.0333,398.8746" style="stroke: #A80036; stroke-width: 3.0;"/><!--MD5=[670ed960d0ed2ad5cc6774f63db32608]
@startuml
scale 3

hide fields
hide members

package akka_raft.view as view{
  interface ClientObserver
  class MainScreenView
  class Client
  interface ActorRef  
}

MainScreenView - -|> ClientObserver
Client ..o ClientObserver
Client -|> ActorRef
MainScreenView ..o ActorRef
@enduml

PlantUML version 1.2020.16beta7(Unknown compile time)
(GPL source distribution)
Java Runtime: Java(TM) SE Runtime Environment
JVM: Java HotSpot(TM) 64-Bit Server VM
Default Encoding: UTF-8
Language: en
Country: US
--></g></svg>