<?xml version="1.0" encoding="UTF-8" standalone="no"?><svg xmlns="http://www.w3.org/2000/svg" xmlns:xlink="http://www.w3.org/1999/xlink" contentScriptType="application/ecmascript" contentStyleType="text/css" height="786px" preserveAspectRatio="none" style="width:760px;height:786px;" version="1.1" viewBox="0 0 760 786" width="760px" zoomAndPan="magnify"><defs><filter height="300%" id="f10y08ecjhdzr7" width="300%" x="-1" y="-1"><feGaussianBlur result="blurOut" stdDeviation="2.0"/><feColorMatrix in="blurOut" result="blurOut2" type="matrix" values="0 0 0 0 0 0 0 0 0 0 0 0 0 0 0 0 0 0 .4 0"/><feOffset dx="4.0" dy="4.0" in="blurOut2" result="blurOut3"/><feBlend in="SourceGraphic" in2="blurOut3" mode="normal"/></filter></defs><g><rect fill="#FFFFFF" filter="url(#f10y08ecjhdzr7)" height="551.8672" style="stroke: #FFFFFF; stroke-width: 1.0;" width="10" x="70" y="48.2969"/><line style="stroke: #A80036; stroke-width: 1.0;" x1="70" x2="70" y1="48.2969" y2="600.1641"/><line style="stroke: #A80036; stroke-width: 1.0;" x1="80" x2="80" y1="48.2969" y2="600.1641"/><line style="stroke: #A80036; stroke-width: 1.0;" x1="70" x2="80" y1="48.2969" y2="48.2969"/><rect fill="#FFFFFF" filter="url(#f10y08ecjhdzr7)" height="88.3984" style="stroke: #FFFFFF; stroke-width: 1.0;" width="10" x="70" y="640.9688"/><line style="stroke: #A80036; stroke-width: 1.0;" x1="70" x2="70" y1="640.9688" y2="729.3672"/><line style="stroke: #A80036; stroke-width: 1.0;" x1="80" x2="80" y1="640.9688" y2="729.3672"/><rect fill="#FFFFFF" filter="url(#f10y08ecjhdzr7)" height="551.8672" style="stroke: #FFFFFF; stroke-width: 1.0;" width="10" x="366" y="48.2969"/><line style="stroke: #A80036; stroke-width: 1.0;" x1="366" x2="366" y1="48.2969" y2="600.1641"/><line style="stroke: #A80036; stroke-width: 1.0;" x1="376" x2="376" y1="48.2969" y2="600.1641"/><line style="stroke: #A80036; stroke-width: 1.0;" x1="366" x2="376" y1="48.2969" y2="48.2969"/><rect fill="#FFFFFF" filter="url(#f10y08ecjhdzr7)" height="88.3984" style="stroke: #FFFFFF; stroke-width: 1.0;" width="10" x="366" y="640.9688"/><line style="stroke: #A80036; stroke-width: 1.0;" x1="366" x2="366" y1="640.9688" y2="729.3672"/><line style="stroke: #A80036; stroke-width: 1.0;" x1="376" x2="376" y1="640.9688" y2="729.3672"/><rect fill="#FFFFFF" filter="url(#f10y08ecjhdzr7)" height="551.8672" style="stroke: #FFFFFF; stroke-width: 1.0;" width="10" x="525" y="48.2969"/><line style="stroke: #A80036; stroke-width: 1.0;" x1="525" x2="525" y1="48.2969" y2="600.1641"/><line style="stroke: #A80036; stroke-width: 1.0;" x1="535" x2="535" y1="48.2969" y2="600.1641"/><line style="stroke: #A80036; stroke-width: 1.0;" x1="525" x2="535" y1="48.2969" y2="48.2969"/><rect fill="#FFFFFF" filter="url(#f10y08ecjhdzr7)" height="88.3984" style="stroke: #FFFFFF; stroke-width: 1.0;" width="10" x="525" y="640.9688"/><line style="stroke: #A80036; stroke-width: 1.0;" x1="525" x2="525" y1="640.9688" y2="729.3672"/><line style="stroke: #A80036; stroke-width: 1.0;" x1="535" x2="535" y1="640.9688" y2="729.3672"/><rect fill="#FFFFFF" filter="url(#f10y08ecjhdzr7)" height="551.8672" style="stroke: #FFFFFF; stroke-width: 1.0;" width="10" x="679" y="48.2969"/><line style="stroke: #A80036; stroke-width: 1.0;" x1="679" x2="679" y1="48.2969" y2="600.1641"/><line style="stroke: #A80036; stroke-width: 1.0;" x1="689" x2="689" y1="48.2969" y2="600.1641"/><line style="stroke: #A80036; stroke-width: 1.0;" x1="679" x2="689" y1="48.2969" y2="48.2969"/><rect fill="#FFFFFF" filter="url(#f10y08ecjhdzr7)" height="88.3984" style="stroke: #FFFFFF; stroke-width: 1.0;" width="10" x="679" y="640.9688"/><line style="stroke: #A80036; stroke-width: 1.0;" x1="679" x2="679" y1="640.9688" y2="729.3672"/><line style="stroke: #A80036; stroke-width: 1.0;" x1="689" x2="689" y1="640.9688" y2="729.3672"/><rect fill="#FFFFFF" filter="url(#f10y08ecjhdzr7)" height="161.4688" style="stroke: #000000; stroke-width: 2.0;" width="609.5" x="13" y="181.8281"/><rect fill="#FFFFFF" height="43.9375" style="stroke: none; stroke-width: 1.0;" width="609.5" x="13" y="299.3594"/><rect fill="#FFFFFF" filter="url(#f10y08ecjhdzr7)" height="90.2031" style="stroke: #000000; stroke-width: 2.0;" width="609.5" x="13" y="473.8281"/><rect fill="#FFFFFF" height="43.9375" style="stroke: none; stroke-width: 1.0;" width="609.5" x="13" y="520.0938"/><line style="stroke: #A80036; stroke-width: 1.0;" x1="75" x2="75" y1="38.2969" y2="600.1641"/><line style="stroke: #A80036; stroke-width: 1.0; stroke-dasharray: 1.0,4.0;" x1="75" x2="75" y1="600.1641" y2="640.9688"/><line style="stroke: #A80036; stroke-width: 1.0;" x1="75" x2="75" y1="640.9688" y2="738.3672"/><line style="stroke: #A80036; stroke-width: 1.0;" x1="370.5" x2="370.5" y1="38.2969" y2="600.1641"/><line style="stroke: #A80036; stroke-width: 1.0; stroke-dasharray: 1.0,4.0;" x1="370.5" x2="370.5" y1="600.1641" y2="640.9688"/><line style="stroke: #A80036; stroke-width: 1.0;" x1="370.5" x2="370.5" y1="640.9688" y2="738.3672"/><line style="stroke: #A80036; stroke-width: 1.0;" x1="529.5" x2="529.5" y1="38.2969" y2="600.1641"/><line style="stroke: #A80036; stroke-width: 1.0; stroke-dasharray: 1.0,4.0;" x1="529.5" x2="529.5" y1="600.1641" y2="640.9688"/><line style="stroke: #A80036; stroke-width: 1.0;" x1="529.5" x2="529.5" y1="640.9688" y2="738.3672"/><line style="stroke: #A80036; stroke-width: 1.0;" x1="683.5" x2="683.5" y1="38.2969" y2="600.1641"/><line style="stroke: #A80036; stroke-width: 1.0; stroke-dasharray: 1.0,4.0;" x1="683.5" x2="683.5" y1="600.1641" y2="640.9688"/><line style="stroke: #A80036; stroke-width: 1.0;" x1="683.5" x2="683.5" y1="640.9688" y2="738.3672"/><rect fill="#FEFECE" filter="url(#f10y08ecjhdzr7)" height="30.2969" style="stroke: #A80036; stroke-width: 1.5;" width="100" x="23" y="3"/><text fill="#000000" font-family="sans-serif" font-size="14" lengthAdjust="spacingAndGlyphs" textLength="86" x="30" y="22.9951">Coordinator</text><rect fill="#FEFECE" filter="url(#f10y08ecjhdzr7)" height="30.2969" style="stroke: #A80036; stroke-width: 1.5;" width="100" x="23" y="737.3672"/><text fill="#000000" font-family="sans-serif" font-size="14" lengthAdjust="spacingAndGlyphs" textLength="86" x="30" y="757.3623">Coordinator</text><rect fill="#FEFECE" filter="url(#f10y08ecjhdzr7)" height="30.2969" style="stroke: #A80036; stroke-width: 1.5;" width="129" x="304.5" y="3"/><text fill="#000000" font-family="sans-serif" font-size="14" lengthAdjust="spacingAndGlyphs" textLength="115" x="311.5" y="22.9951">SystemManager</text><rect fill="#FEFECE" filter="url(#f10y08ecjhdzr7)" height="30.2969" style="stroke: #A80036; stroke-width: 1.5;" width="129" x="304.5" y="737.3672"/><text fill="#000000" font-family="sans-serif" font-size="14" lengthAdjust="spacingAndGlyphs" textLength="115" x="311.5" y="757.3623">SystemManager</text><rect fill="#FEFECE" filter="url(#f10y08ecjhdzr7)" height="30.2969" style="stroke: #A80036; stroke-width: 1.5;" width="161" x="447.5" y="3"/><text fill="#000000" font-family="sans-serif" font-size="14" lengthAdjust="spacingAndGlyphs" textLength="147" x="454.5" y="22.9951">ComponentManager</text><rect fill="#FEFECE" filter="url(#f10y08ecjhdzr7)" height="30.2969" style="stroke: #A80036; stroke-width: 1.5;" width="161" x="447.5" y="737.3672"/><text fill="#000000" font-family="sans-serif" font-size="14" lengthAdjust="spacingAndGlyphs" textLength="147" x="454.5" y="757.3623">ComponentManager</text><rect fill="#FEFECE" filter="url(#f10y08ecjhdzr7)" height="30.2969" style="stroke: #A80036; stroke-width: 1.5;" width="119" x="622.5" y="3"/><text fill="#000000" font-family="sans-serif" font-size="14" lengthAdjust="spacingAndGlyphs" textLength="105" x="629.5" y="22.9951">EntityManager</text><rect fill="#FEFECE" filter="url(#f10y08ecjhdzr7)" height="30.2969" style="stroke: #A80036; stroke-width: 1.5;" width="119" x="622.5" y="737.3672"/><text fill="#000000" font-family="sans-serif" font-size="14" lengthAdjust="spacingAndGlyphs" textLength="105" x="629.5" y="757.3623">EntityManager</text><rect fill="#FFFFFF" filter="url(#f10y08ecjhdzr7)" height="551.8672" style="stroke: #FFFFFF; stroke-width: 1.0;" width="10" x="70" y="48.2969"/><line style="stroke: #A80036; stroke-width: 1.0;" x1="70" x2="70" y1="48.2969" y2="600.1641"/><line style="stroke: #A80036; stroke-width: 1.0;" x1="80" x2="80" y1="48.2969" y2="600.1641"/><line style="stroke: #A80036; stroke-width: 1.0;" x1="70" x2="80" y1="48.2969" y2="48.2969"/><rect fill="#FFFFFF" filter="url(#f10y08ecjhdzr7)" height="88.3984" style="stroke: #FFFFFF; stroke-width: 1.0;" width="10" x="70" y="640.9688"/><line style="stroke: #A80036; stroke-width: 1.0;" x1="70" x2="70" y1="640.9688" y2="729.3672"/><line style="stroke: #A80036; stroke-width: 1.0;" x1="80" x2="80" y1="640.9688" y2="729.3672"/><rect fill="#FFFFFF" filter="url(#f10y08ecjhdzr7)" height="551.8672" style="stroke: #FFFFFF; stroke-width: 1.0;" width="10" x="366" y="48.2969"/><line style="stroke: #A80036; stroke-width: 1.0;" x1="366" x2="366" y1="48.2969" y2="600.1641"/><line style="stroke: #A80036; stroke-width: 1.0;" x1="376" x2="376" y1="48.2969" y2="600.1641"/><line style="stroke: #A80036; stroke-width: 1.0;" x1="366" x2="376" y1="48.2969" y2="48.2969"/><rect fill="#FFFFFF" filter="url(#f10y08ecjhdzr7)" height="88.3984" style="stroke: #FFFFFF; stroke-width: 1.0;" width="10" x="366" y="640.9688"/><line style="stroke: #A80036; stroke-width: 1.0;" x1="366" x2="366" y1="640.9688" y2="729.3672"/><line style="stroke: #A80036; stroke-width: 1.0;" x1="376" x2="376" y1="640.9688" y2="729.3672"/><rect fill="#FFFFFF" filter="url(#f10y08ecjhdzr7)" height="551.8672" style="stroke: #FFFFFF; stroke-width: 1.0;" width="10" x="525" y="48.2969"/><line style="stroke: #A80036; stroke-width: 1.0;" x1="525" x2="525" y1="48.2969" y2="600.1641"/><line style="stroke: #A80036; stroke-width: 1.0;" x1="535" x2="535" y1="48.2969" y2="600.1641"/><line style="stroke: #A80036; stroke-width: 1.0;" x1="525" x2="535" y1="48.2969" y2="48.2969"/><rect fill="#FFFFFF" filter="url(#f10y08ecjhdzr7)" height="88.3984" style="stroke: #FFFFFF; stroke-width: 1.0;" width="10" x="525" y="640.9688"/><line style="stroke: #A80036; stroke-width: 1.0;" x1="525" x2="525" y1="640.9688" y2="729.3672"/><line style="stroke: #A80036; stroke-width: 1.0;" x1="535" x2="535" y1="640.9688" y2="729.3672"/><rect fill="#FFFFFF" filter="url(#f10y08ecjhdzr7)" height="551.8672" style="stroke: #FFFFFF; stroke-width: 1.0;" width="10" x="679" y="48.2969"/><line style="stroke: #A80036; stroke-width: 1.0;" x1="679" x2="679" y1="48.2969" y2="600.1641"/><line style="stroke: #A80036; stroke-width: 1.0;" x1="689" x2="689" y1="48.2969" y2="600.1641"/><line style="stroke: #A80036; stroke-width: 1.0;" x1="679" x2="689" y1="48.2969" y2="48.2969"/><rect fill="#FFFFFF" filter="url(#f10y08ecjhdzr7)" height="88.3984" style="stroke: #FFFFFF; stroke-width: 1.0;" width="10" x="679" y="640.9688"/><line style="stroke: #A80036; stroke-width: 1.0;" x1="679" x2="679" y1="640.9688" y2="729.3672"/><line style="stroke: #A80036; stroke-width: 1.0;" x1="689" x2="689" y1="640.9688" y2="729.3672"/><polygon fill="#A80036" points="513,65.4297,523,69.4297,513,73.4297,517,69.4297" style="stroke: #A80036; stroke-width: 1.0;"/><line style="stroke: #A80036; stroke-width: 1.0;" x1="80" x2="519" y1="69.4297" y2="69.4297"/><text fill="#000000" font-family="sans-serif" font-size="13" lengthAdjust="spacingAndGlyphs" textLength="177" x="87" y="64.3638">registerComponent(c.class)</text><polygon fill="#A80036" points="354,94.5625,364,98.5625,354,102.5625,358,98.5625" style="stroke: #A80036; stroke-width: 1.0;"/><line style="stroke: #A80036; stroke-width: 1.0;" x1="80" x2="360" y1="98.5625" y2="98.5625"/><text fill="#000000" font-family="sans-serif" font-size="13" lengthAdjust="spacingAndGlyphs" textLength="156" x="87" y="93.4966">registerSystem(system)</text><path d="M85,111.5625 L85,136.5625 L358,136.5625 L358,121.5625 L348,111.5625 L85,111.5625 " fill="#FBFB77" filter="url(#f10y08ecjhdzr7)" style="stroke: #A80036; stroke-width: 1.0;"/><path d="M348,111.5625 L348,121.5625 L358,121.5625 L348,111.5625 " fill="#FBFB77" style="stroke: #A80036; stroke-width: 1.0;"/><text fill="#000000" font-family="sans-serif" font-size="13" lengthAdjust="spacingAndGlyphs" textLength="252" x="91" y="128.6294">signature = new List[Component.class]</text><polygon fill="#A80036" points="513,162.8281,523,166.8281,513,170.8281,517,166.8281" style="stroke: #A80036; stroke-width: 1.0;"/><line style="stroke: #A80036; stroke-width: 1.0;" x1="80" x2="519" y1="166.8281" y2="166.8281"/><text fill="#000000" font-family="sans-serif" font-size="13" lengthAdjust="spacingAndGlyphs" textLength="167" x="87" y="161.7622">checkComponent(c.Class)</text><path d="M13,181.8281 L79,181.8281 L79,188.8281 L69,198.8281 L13,198.8281 L13,181.8281 " fill="#EEEEEE" style="stroke: #000000; stroke-width: 1.0;"/><rect fill="none" height="161.4688" style="stroke: #000000; stroke-width: 2.0;" width="609.5" x="13" y="181.8281"/><text fill="#000000" font-family="sans-serif" font-size="13" font-weight="bold" lengthAdjust="spacingAndGlyphs" textLength="21" x="28" y="194.895">alt</text><text fill="#000000" font-family="sans-serif" font-size="11" font-weight="bold" lengthAdjust="spacingAndGlyphs" textLength="50" x="94" y="194.0386">[found]</text><polygon fill="#A80036" points="91,216.0938,81,220.0938,91,224.0938,87,220.0938" style="stroke: #A80036; stroke-width: 1.0;"/><line style="stroke: #A80036; stroke-width: 1.0; stroke-dasharray: 2.0,2.0;" x1="85" x2="524" y1="220.0938" y2="220.0938"/><text fill="#000000" font-family="sans-serif" font-size="13" lengthAdjust="spacingAndGlyphs" textLength="90" x="97" y="215.0278">Some(c.class)</text><line style="stroke: #A80036; stroke-width: 1.0;" x1="80" x2="122" y1="249.2266" y2="249.2266"/><line style="stroke: #A80036; stroke-width: 1.0;" x1="122" x2="122" y1="249.2266" y2="262.2266"/><line style="stroke: #A80036; stroke-width: 1.0;" x1="81" x2="122" y1="262.2266" y2="262.2266"/><polygon fill="#A80036" points="91,258.2266,81,262.2266,91,266.2266,87,262.2266" style="stroke: #A80036; stroke-width: 1.0;"/><text fill="#000000" font-family="sans-serif" font-size="13" lengthAdjust="spacingAndGlyphs" textLength="141" x="87" y="244.1606">signature.add(c.class)</text><polygon fill="#A80036" points="354,287.3594,364,291.3594,354,295.3594,358,291.3594" style="stroke: #A80036; stroke-width: 1.0;"/><line style="stroke: #A80036; stroke-width: 1.0;" x1="80" x2="360" y1="291.3594" y2="291.3594"/><text fill="#000000" font-family="sans-serif" font-size="13" lengthAdjust="spacingAndGlyphs" textLength="256" x="87" y="286.2935">setSystemSignature(system, signature)</text><line style="stroke: #000000; stroke-width: 1.0; stroke-dasharray: 2.0,2.0;" x1="13" x2="622.5" y1="300.3594" y2="300.3594"/><text fill="#000000" font-family="sans-serif" font-size="11" font-weight="bold" lengthAdjust="spacingAndGlyphs" textLength="78" x="18" y="310.5698">[not Found]</text><polygon fill="#A80036" points="91,331.2969,81,335.2969,91,339.2969,87,335.2969" style="stroke: #A80036; stroke-width: 1.0;"/><line style="stroke: #A80036; stroke-width: 1.0; stroke-dasharray: 2.0,2.0;" x1="85" x2="524" y1="335.2969" y2="335.2969"/><text fill="#000000" font-family="sans-serif" font-size="13" lengthAdjust="spacingAndGlyphs" textLength="33" x="97" y="330.231">None</text><polygon fill="#A80036" points="667,367.4297,677,371.4297,667,375.4297,671,371.4297" style="stroke: #A80036; stroke-width: 1.0;"/><line style="stroke: #A80036; stroke-width: 1.0;" x1="80" x2="673" y1="371.4297" y2="371.4297"/><text fill="#000000" font-family="sans-serif" font-size="13" lengthAdjust="spacingAndGlyphs" textLength="99" x="87" y="366.3638">createEntity(id)</text><polygon fill="#A80036" points="91,396.5625,81,400.5625,91,404.5625,87,400.5625" style="stroke: #A80036; stroke-width: 1.0;"/><line style="stroke: #A80036; stroke-width: 1.0; stroke-dasharray: 2.0,2.0;" x1="85" x2="678" y1="400.5625" y2="400.5625"/><text fill="#000000" font-family="sans-serif" font-size="13" lengthAdjust="spacingAndGlyphs" textLength="37" x="97" y="395.4966">entity</text><polygon fill="#A80036" points="513,425.6953,523,429.6953,513,433.6953,517,429.6953" style="stroke: #A80036; stroke-width: 1.0;"/><line style="stroke: #A80036; stroke-width: 1.0;" x1="80" x2="519" y1="429.6953" y2="429.6953"/><text fill="#000000" font-family="sans-serif" font-size="13" lengthAdjust="spacingAndGlyphs" textLength="244" x="87" y="424.6294">addComponent(id, new Component())</text><polygon fill="#A80036" points="513,454.8281,523,458.8281,513,462.8281,517,458.8281" style="stroke: #A80036; stroke-width: 1.0;"/><line style="stroke: #A80036; stroke-width: 1.0;" x1="80" x2="519" y1="458.8281" y2="458.8281"/><text fill="#000000" font-family="sans-serif" font-size="13" lengthAdjust="spacingAndGlyphs" textLength="167" x="87" y="453.7622">checkComponent(c.Class)</text><path d="M13,473.8281 L79,473.8281 L79,480.8281 L69,490.8281 L13,490.8281 L13,473.8281 " fill="#EEEEEE" style="stroke: #000000; stroke-width: 1.0;"/><rect fill="none" height="90.2031" style="stroke: #000000; stroke-width: 2.0;" width="609.5" x="13" y="473.8281"/><text fill="#000000" font-family="sans-serif" font-size="13" font-weight="bold" lengthAdjust="spacingAndGlyphs" textLength="21" x="28" y="486.895">alt</text><text fill="#000000" font-family="sans-serif" font-size="11" font-weight="bold" lengthAdjust="spacingAndGlyphs" textLength="61" x="94" y="486.0386">[success]</text><polygon fill="#A80036" points="354,508.0938,364,512.0938,354,516.0938,358,512.0938" style="stroke: #A80036; stroke-width: 1.0;"/><line style="stroke: #A80036; stroke-width: 1.0;" x1="80" x2="360" y1="512.0938" y2="512.0938"/><text fill="#000000" font-family="sans-serif" font-size="13" lengthAdjust="spacingAndGlyphs" textLength="262" x="87" y="507.0278">entitySignatureChange(entity, signature)</text><line style="stroke: #000000; stroke-width: 1.0; stroke-dasharray: 2.0,2.0;" x1="13" x2="622.5" y1="521.0938" y2="521.0938"/><text fill="#000000" font-family="sans-serif" font-size="11" font-weight="bold" lengthAdjust="spacingAndGlyphs" textLength="33" x="18" y="531.3042">[fail]</text><polygon fill="#A80036" points="91,552.0313,81,556.0313,91,560.0313,87,556.0313" style="stroke: #A80036; stroke-width: 1.0;"/><line style="stroke: #A80036; stroke-width: 1.0; stroke-dasharray: 2.0,2.0;" x1="85" x2="524" y1="556.0313" y2="556.0313"/><text fill="#000000" font-family="sans-serif" font-size="13" lengthAdjust="spacingAndGlyphs" textLength="134" x="97" y="550.9653">SignatureException()</text><polygon fill="#A80036" points="354,588.1641,364,592.1641,354,596.1641,358,592.1641" style="stroke: #A80036; stroke-width: 1.0;"/><line style="stroke: #A80036; stroke-width: 1.0;" x1="80" x2="360" y1="592.1641" y2="592.1641"/><text fill="#000000" font-family="sans-serif" font-size="13" lengthAdjust="spacingAndGlyphs" textLength="119" x="87" y="587.0981">updateAllSystem()</text><text fill="#000000" font-family="sans-serif" font-size="11" lengthAdjust="spacingAndGlyphs" textLength="94" x="332.5" y="624.3745">After some time</text><polygon fill="#A80036" points="354,658.1016,364,662.1016,354,666.1016,358,662.1016" style="stroke: #A80036; stroke-width: 1.0;"/><line style="stroke: #A80036; stroke-width: 1.0;" x1="80" x2="360" y1="662.1016" y2="662.1016"/><text fill="#000000" font-family="sans-serif" font-size="13" lengthAdjust="spacingAndGlyphs" textLength="151" x="87" y="657.0356">entityDestroyed(entity)</text><polygon fill="#A80036" points="513,687.2344,523,691.2344,513,695.2344,517,691.2344" style="stroke: #A80036; stroke-width: 1.0;"/><line style="stroke: #A80036; stroke-width: 1.0;" x1="80" x2="519" y1="691.2344" y2="691.2344"/><text fill="#000000" font-family="sans-serif" font-size="13" lengthAdjust="spacingAndGlyphs" textLength="151" x="87" y="686.1685">entityDestroyed(entity)</text><polygon fill="#A80036" points="667,716.3672,677,720.3672,667,724.3672,671,720.3672" style="stroke: #A80036; stroke-width: 1.0;"/><line style="stroke: #A80036; stroke-width: 1.0;" x1="80" x2="673" y1="720.3672" y2="720.3672"/><text fill="#000000" font-family="sans-serif" font-size="13" lengthAdjust="spacingAndGlyphs" textLength="151" x="87" y="715.3013">entityDestroyed(entity)</text><!--MD5=[d377a270c28c6476ad33276d50546d77]
@startuml
participant "Coordinator" as Coordinator
    participant "SystemManager" as SystemManager
    participant "ComponentManager" as ComponentManager
    participant "EntityManager" as EntityManager

    activate Coordinator
    activate SystemManager
    activate ComponentManager
    activate EntityManager


    Coordinator -> ComponentManager : registerComponent(c.class)

    Coordinator -> SystemManager : registerSystem(system)

    note right of Coordinator: signature = new List[Component.class]

    Coordinator -> ComponentManager : checkComponent(c.Class)
    alt found
      ComponentManager - ->Coordinator : Some(c.class)
      Coordinator -> Coordinator : signature.add(c.class)
      Coordinator -> SystemManager : setSystemSignature(system, signature)
    else not Found
      ComponentManager - ->Coordinator : None
    end

    Coordinator -> EntityManager : createEntity(id)
    EntityManager - ->  Coordinator : entity
    Coordinator -> ComponentManager : addComponent(id, new Component())
    Coordinator -> ComponentManager : checkComponent(c.Class)

    alt success 
      Coordinator -> SystemManager : entitySignatureChange(entity, signature)
    
    else fail
      ComponentManager - -> Coordinator : SignatureException()
    end

    Coordinator -> SystemManager : updateAllSystem()
    ...After some time...
    Coordinator -> SystemManager : entityDestroyed(entity)
    Coordinator -> ComponentManager : entityDestroyed(entity)
    Coordinator -> EntityManager : entityDestroyed(entity)
@enduml

PlantUML version 1.2020.17beta5(Unknown compile time)
(GPL source distribution)
Java Runtime: Java(TM) SE Runtime Environment
JVM: Java HotSpot(TM) 64-Bit Server VM
Default Encoding: UTF-8
Language: en
Country: US
--></g></svg>