<?xml version="1.0" encoding="UTF-8" standalone="no"?><svg xmlns="http://www.w3.org/2000/svg" xmlns:xlink="http://www.w3.org/1999/xlink" contentScriptType="application/ecmascript" contentStyleType="text/css" height="780px" preserveAspectRatio="none" style="width:849px;height:780px;" version="1.1" viewBox="0 0 849 780" width="849px" zoomAndPan="magnify"><defs><filter height="300%" id="f1jabvi5pl0f63" width="300%" x="-1" y="-1"><feGaussianBlur result="blurOut" stdDeviation="2.0"/><feColorMatrix in="blurOut" result="blurOut2" type="matrix" values="0 0 0 0 0 0 0 0 0 0 0 0 0 0 0 0 0 0 .4 0"/><feOffset dx="4.0" dy="4.0" in="blurOut2" result="blurOut3"/><feBlend in="SourceGraphic" in2="blurOut3" mode="normal"/></filter></defs><g><rect fill="#FFFFFF" filter="url(#f1jabvi5pl0f63)" height="548.7344" style="stroke: #FFFFFF; stroke-width: 1.0;" width="10" x="67" y="50.2969"/><line style="stroke: #A80036; stroke-width: 1.0;" x1="67" x2="67" y1="50.2969" y2="599.0313"/><line style="stroke: #A80036; stroke-width: 1.0;" x1="77" x2="77" y1="50.2969" y2="599.0313"/><line style="stroke: #A80036; stroke-width: 1.0;" x1="67" x2="77" y1="50.2969" y2="50.2969"/><rect fill="#FFFFFF" filter="url(#f1jabvi5pl0f63)" height="88.3984" style="stroke: #FFFFFF; stroke-width: 1.0;" width="10" x="67" y="639.8359"/><line style="stroke: #A80036; stroke-width: 1.0;" x1="67" x2="67" y1="639.8359" y2="728.2344"/><line style="stroke: #A80036; stroke-width: 1.0;" x1="77" x2="77" y1="639.8359" y2="728.2344"/><rect fill="#FFFFFF" filter="url(#f1jabvi5pl0f63)" height="548.7344" style="stroke: #FFFFFF; stroke-width: 1.0;" width="10" x="363" y="50.2969"/><line style="stroke: #A80036; stroke-width: 1.0;" x1="363" x2="363" y1="50.2969" y2="599.0313"/><line style="stroke: #A80036; stroke-width: 1.0;" x1="373" x2="373" y1="50.2969" y2="599.0313"/><line style="stroke: #A80036; stroke-width: 1.0;" x1="363" x2="373" y1="50.2969" y2="50.2969"/><rect fill="#FFFFFF" filter="url(#f1jabvi5pl0f63)" height="88.3984" style="stroke: #FFFFFF; stroke-width: 1.0;" width="10" x="363" y="639.8359"/><line style="stroke: #A80036; stroke-width: 1.0;" x1="363" x2="363" y1="639.8359" y2="728.2344"/><line style="stroke: #A80036; stroke-width: 1.0;" x1="373" x2="373" y1="639.8359" y2="728.2344"/><rect fill="#FFFFFF" filter="url(#f1jabvi5pl0f63)" height="548.7344" style="stroke: #FFFFFF; stroke-width: 1.0;" width="10" x="522" y="50.2969"/><line style="stroke: #A80036; stroke-width: 1.0;" x1="522" x2="522" y1="50.2969" y2="599.0313"/><line style="stroke: #A80036; stroke-width: 1.0;" x1="532" x2="532" y1="50.2969" y2="599.0313"/><line style="stroke: #A80036; stroke-width: 1.0;" x1="522" x2="532" y1="50.2969" y2="50.2969"/><rect fill="#FFFFFF" filter="url(#f1jabvi5pl0f63)" height="88.3984" style="stroke: #FFFFFF; stroke-width: 1.0;" width="10" x="522" y="639.8359"/><line style="stroke: #A80036; stroke-width: 1.0;" x1="522" x2="522" y1="639.8359" y2="728.2344"/><line style="stroke: #A80036; stroke-width: 1.0;" x1="532" x2="532" y1="639.8359" y2="728.2344"/><rect fill="#FFFFFF" filter="url(#f1jabvi5pl0f63)" height="548.7344" style="stroke: #FFFFFF; stroke-width: 1.0;" width="10" x="773" y="50.2969"/><line style="stroke: #A80036; stroke-width: 1.0;" x1="773" x2="773" y1="50.2969" y2="599.0313"/><line style="stroke: #A80036; stroke-width: 1.0;" x1="783" x2="783" y1="50.2969" y2="599.0313"/><line style="stroke: #A80036; stroke-width: 1.0;" x1="773" x2="783" y1="50.2969" y2="50.2969"/><rect fill="#FFFFFF" filter="url(#f1jabvi5pl0f63)" height="88.3984" style="stroke: #FFFFFF; stroke-width: 1.0;" width="10" x="773" y="639.8359"/><line style="stroke: #A80036; stroke-width: 1.0;" x1="773" x2="773" y1="639.8359" y2="728.2344"/><line style="stroke: #A80036; stroke-width: 1.0;" x1="783" x2="783" y1="639.8359" y2="728.2344"/><rect fill="#FFFFFF" filter="url(#f1jabvi5pl0f63)" height="90.2031" style="stroke: #000000; stroke-width: 2.0;" width="609.5" x="10" y="196.8281"/><rect fill="#FFFFFF" height="43.9375" style="stroke: none; stroke-width: 1.0;" width="609.5" x="10" y="243.0938"/><rect fill="#FFFFFF" filter="url(#f1jabvi5pl0f63)" height="132.3359" style="stroke: #000000; stroke-width: 2.0;" width="609.5" x="10" y="430.5625"/><rect fill="#FFFFFF" height="43.9375" style="stroke: none; stroke-width: 1.0;" width="609.5" x="10" y="518.9609"/><line style="stroke: #A80036; stroke-width: 1.0;" x1="72" x2="72" y1="40.2969" y2="599.0313"/><line style="stroke: #A80036; stroke-width: 1.0; stroke-dasharray: 1.0,4.0;" x1="72" x2="72" y1="599.0313" y2="639.8359"/><line style="stroke: #A80036; stroke-width: 1.0;" x1="72" x2="72" y1="639.8359" y2="737.2344"/><line style="stroke: #A80036; stroke-width: 1.0;" x1="367.5" x2="367.5" y1="40.2969" y2="599.0313"/><line style="stroke: #A80036; stroke-width: 1.0; stroke-dasharray: 1.0,4.0;" x1="367.5" x2="367.5" y1="599.0313" y2="639.8359"/><line style="stroke: #A80036; stroke-width: 1.0;" x1="367.5" x2="367.5" y1="639.8359" y2="737.2344"/><line style="stroke: #A80036; stroke-width: 1.0;" x1="526.5" x2="526.5" y1="40.2969" y2="599.0313"/><line style="stroke: #A80036; stroke-width: 1.0; stroke-dasharray: 1.0,4.0;" x1="526.5" x2="526.5" y1="599.0313" y2="639.8359"/><line style="stroke: #A80036; stroke-width: 1.0;" x1="526.5" x2="526.5" y1="639.8359" y2="737.2344"/><line style="stroke: #A80036; stroke-width: 1.0;" x1="777.5" x2="777.5" y1="40.2969" y2="599.0313"/><line style="stroke: #A80036; stroke-width: 1.0; stroke-dasharray: 1.0,4.0;" x1="777.5" x2="777.5" y1="599.0313" y2="639.8359"/><line style="stroke: #A80036; stroke-width: 1.0;" x1="777.5" x2="777.5" y1="639.8359" y2="737.2344"/><rect fill="#FEFECE" filter="url(#f1jabvi5pl0f63)" height="30.2969" style="stroke: #A80036; stroke-width: 1.5;" width="100" x="20" y="5"/><text fill="#000000" font-family="sans-serif" font-size="14" lengthAdjust="spacingAndGlyphs" textLength="86" x="27" y="24.9951">Coordinator</text><rect fill="#FEFECE" filter="url(#f1jabvi5pl0f63)" height="30.2969" style="stroke: #A80036; stroke-width: 1.5;" width="100" x="20" y="736.2344"/><text fill="#000000" font-family="sans-serif" font-size="14" lengthAdjust="spacingAndGlyphs" textLength="86" x="27" y="756.2295">Coordinator</text><rect fill="#FEFECE" filter="url(#f1jabvi5pl0f63)" height="30.2969" style="stroke: #A80036; stroke-width: 1.5;" width="129" x="301.5" y="5"/><text fill="#000000" font-family="sans-serif" font-size="14" lengthAdjust="spacingAndGlyphs" textLength="115" x="308.5" y="24.9951">SystemManager</text><rect fill="#FEFECE" filter="url(#f1jabvi5pl0f63)" height="30.2969" style="stroke: #A80036; stroke-width: 1.5;" width="129" x="301.5" y="736.2344"/><text fill="#000000" font-family="sans-serif" font-size="14" lengthAdjust="spacingAndGlyphs" textLength="115" x="308.5" y="756.2295">SystemManager</text><rect fill="#FEFECE" filter="url(#f1jabvi5pl0f63)" height="30.2969" style="stroke: #A80036; stroke-width: 1.5;" width="161" x="444.5" y="5"/><text fill="#000000" font-family="sans-serif" font-size="14" lengthAdjust="spacingAndGlyphs" textLength="147" x="451.5" y="24.9951">ComponentManager</text><rect fill="#FEFECE" filter="url(#f1jabvi5pl0f63)" height="30.2969" style="stroke: #A80036; stroke-width: 1.5;" width="161" x="444.5" y="736.2344"/><text fill="#000000" font-family="sans-serif" font-size="14" lengthAdjust="spacingAndGlyphs" textLength="147" x="451.5" y="756.2295">ComponentManager</text><rect fill="#FEFECE" filter="url(#f1jabvi5pl0f63)" height="30.2969" style="stroke: #A80036; stroke-width: 1.5;" width="119" x="716.5" y="5"/><text fill="#000000" font-family="sans-serif" font-size="14" lengthAdjust="spacingAndGlyphs" textLength="105" x="723.5" y="24.9951">EntityManager</text><rect fill="#FEFECE" filter="url(#f1jabvi5pl0f63)" height="30.2969" style="stroke: #A80036; stroke-width: 1.5;" width="119" x="716.5" y="736.2344"/><text fill="#000000" font-family="sans-serif" font-size="14" lengthAdjust="spacingAndGlyphs" textLength="105" x="723.5" y="756.2295">EntityManager</text><rect fill="#FFFFFF" filter="url(#f1jabvi5pl0f63)" height="548.7344" style="stroke: #FFFFFF; stroke-width: 1.0;" width="10" x="67" y="50.2969"/><line style="stroke: #A80036; stroke-width: 1.0;" x1="67" x2="67" y1="50.2969" y2="599.0313"/><line style="stroke: #A80036; stroke-width: 1.0;" x1="77" x2="77" y1="50.2969" y2="599.0313"/><line style="stroke: #A80036; stroke-width: 1.0;" x1="67" x2="77" y1="50.2969" y2="50.2969"/><rect fill="#FFFFFF" filter="url(#f1jabvi5pl0f63)" height="88.3984" style="stroke: #FFFFFF; stroke-width: 1.0;" width="10" x="67" y="639.8359"/><line style="stroke: #A80036; stroke-width: 1.0;" x1="67" x2="67" y1="639.8359" y2="728.2344"/><line style="stroke: #A80036; stroke-width: 1.0;" x1="77" x2="77" y1="639.8359" y2="728.2344"/><rect fill="#FFFFFF" filter="url(#f1jabvi5pl0f63)" height="548.7344" style="stroke: #FFFFFF; stroke-width: 1.0;" width="10" x="363" y="50.2969"/><line style="stroke: #A80036; stroke-width: 1.0;" x1="363" x2="363" y1="50.2969" y2="599.0313"/><line style="stroke: #A80036; stroke-width: 1.0;" x1="373" x2="373" y1="50.2969" y2="599.0313"/><line style="stroke: #A80036; stroke-width: 1.0;" x1="363" x2="373" y1="50.2969" y2="50.2969"/><rect fill="#FFFFFF" filter="url(#f1jabvi5pl0f63)" height="88.3984" style="stroke: #FFFFFF; stroke-width: 1.0;" width="10" x="363" y="639.8359"/><line style="stroke: #A80036; stroke-width: 1.0;" x1="363" x2="363" y1="639.8359" y2="728.2344"/><line style="stroke: #A80036; stroke-width: 1.0;" x1="373" x2="373" y1="639.8359" y2="728.2344"/><rect fill="#FFFFFF" filter="url(#f1jabvi5pl0f63)" height="548.7344" style="stroke: #FFFFFF; stroke-width: 1.0;" width="10" x="522" y="50.2969"/><line style="stroke: #A80036; stroke-width: 1.0;" x1="522" x2="522" y1="50.2969" y2="599.0313"/><line style="stroke: #A80036; stroke-width: 1.0;" x1="532" x2="532" y1="50.2969" y2="599.0313"/><line style="stroke: #A80036; stroke-width: 1.0;" x1="522" x2="532" y1="50.2969" y2="50.2969"/><rect fill="#FFFFFF" filter="url(#f1jabvi5pl0f63)" height="88.3984" style="stroke: #FFFFFF; stroke-width: 1.0;" width="10" x="522" y="639.8359"/><line style="stroke: #A80036; stroke-width: 1.0;" x1="522" x2="522" y1="639.8359" y2="728.2344"/><line style="stroke: #A80036; stroke-width: 1.0;" x1="532" x2="532" y1="639.8359" y2="728.2344"/><rect fill="#FFFFFF" filter="url(#f1jabvi5pl0f63)" height="548.7344" style="stroke: #FFFFFF; stroke-width: 1.0;" width="10" x="773" y="50.2969"/><line style="stroke: #A80036; stroke-width: 1.0;" x1="773" x2="773" y1="50.2969" y2="599.0313"/><line style="stroke: #A80036; stroke-width: 1.0;" x1="783" x2="783" y1="50.2969" y2="599.0313"/><line style="stroke: #A80036; stroke-width: 1.0;" x1="773" x2="783" y1="50.2969" y2="50.2969"/><rect fill="#FFFFFF" filter="url(#f1jabvi5pl0f63)" height="88.3984" style="stroke: #FFFFFF; stroke-width: 1.0;" width="10" x="773" y="639.8359"/><line style="stroke: #A80036; stroke-width: 1.0;" x1="773" x2="773" y1="639.8359" y2="728.2344"/><line style="stroke: #A80036; stroke-width: 1.0;" x1="783" x2="783" y1="639.8359" y2="728.2344"/><polygon fill="#A80036" points="510,67.4297,520,71.4297,510,75.4297,514,71.4297" style="stroke: #A80036; stroke-width: 1.0;"/><line style="stroke: #A80036; stroke-width: 1.0;" x1="77" x2="516" y1="71.4297" y2="71.4297"/><text fill="#000000" font-family="sans-serif" font-size="13" lengthAdjust="spacingAndGlyphs" textLength="239" x="84" y="66.3638">registerComponent(componentType)</text><polygon fill="#A80036" points="351,96.5625,361,100.5625,351,104.5625,355,100.5625" style="stroke: #A80036; stroke-width: 1.0;"/><line style="stroke: #A80036; stroke-width: 1.0;" x1="77" x2="357" y1="100.5625" y2="100.5625"/><text fill="#000000" font-family="sans-serif" font-size="13" lengthAdjust="spacingAndGlyphs" textLength="156" x="84" y="95.4966">registerSystem(system)</text><path d="M82,113.5625 L82,138.5625 L317,138.5625 L317,123.5625 L307,113.5625 L82,113.5625 " fill="#FBFB77" filter="url(#f1jabvi5pl0f63)" style="stroke: #A80036; stroke-width: 1.0;"/><path d="M307,113.5625 L307,123.5625 L317,123.5625 L307,113.5625 " fill="#FBFB77" style="stroke: #A80036; stroke-width: 1.0;"/><text fill="#000000" font-family="sans-serif" font-size="13" lengthAdjust="spacingAndGlyphs" textLength="214" x="88" y="130.6294">signature = Set[componentType]</text><line style="stroke: #A80036; stroke-width: 1.0;" x1="532" x2="574" y1="168.8281" y2="168.8281"/><line style="stroke: #A80036; stroke-width: 1.0;" x1="574" x2="574" y1="168.8281" y2="181.8281"/><line style="stroke: #A80036; stroke-width: 1.0;" x1="533" x2="574" y1="181.8281" y2="181.8281"/><polygon fill="#A80036" points="543,177.8281,533,181.8281,543,185.8281,539,181.8281" style="stroke: #A80036; stroke-width: 1.0;"/><text fill="#000000" font-family="sans-serif" font-size="13" lengthAdjust="spacingAndGlyphs" textLength="227" x="539" y="163.7622">checkComponent(componentType)</text><path d="M10,196.8281 L76,196.8281 L76,203.8281 L66,213.8281 L10,213.8281 L10,196.8281 " fill="#EEEEEE" style="stroke: #000000; stroke-width: 1.0;"/><rect fill="none" height="90.2031" style="stroke: #000000; stroke-width: 2.0;" width="609.5" x="10" y="196.8281"/><text fill="#000000" font-family="sans-serif" font-size="13" font-weight="bold" lengthAdjust="spacingAndGlyphs" textLength="21" x="25" y="209.895">alt</text><text fill="#000000" font-family="sans-serif" font-size="11" font-weight="bold" lengthAdjust="spacingAndGlyphs" textLength="50" x="91" y="209.0386">[found]</text><polygon fill="#A80036" points="88,231.0938,78,235.0938,88,239.0938,84,235.0938" style="stroke: #A80036; stroke-width: 1.0;"/><line style="stroke: #A80036; stroke-width: 1.0; stroke-dasharray: 2.0,2.0;" x1="82" x2="521" y1="235.0938" y2="235.0938"/><text fill="#000000" font-family="sans-serif" font-size="13" lengthAdjust="spacingAndGlyphs" textLength="120" x="94" y="230.0278">Some(component)</text><line style="stroke: #000000; stroke-width: 1.0; stroke-dasharray: 2.0,2.0;" x1="10" x2="619.5" y1="244.0938" y2="244.0938"/><text fill="#000000" font-family="sans-serif" font-size="11" font-weight="bold" lengthAdjust="spacingAndGlyphs" textLength="78" x="15" y="254.3042">[not Found]</text><polygon fill="#A80036" points="88,275.0313,78,279.0313,88,283.0313,84,279.0313" style="stroke: #A80036; stroke-width: 1.0;"/><line style="stroke: #A80036; stroke-width: 1.0; stroke-dasharray: 2.0,2.0;" x1="82" x2="521" y1="279.0313" y2="279.0313"/><text fill="#000000" font-family="sans-serif" font-size="13" lengthAdjust="spacingAndGlyphs" textLength="156" x="94" y="273.9653">unregisteredComponent</text><polygon fill="#A80036" points="761,311.1641,771,315.1641,761,319.1641,765,315.1641" style="stroke: #A80036; stroke-width: 1.0;"/><line style="stroke: #A80036; stroke-width: 1.0;" x1="77" x2="767" y1="315.1641" y2="315.1641"/><text fill="#000000" font-family="sans-serif" font-size="13" lengthAdjust="spacingAndGlyphs" textLength="99" x="84" y="310.0981">createEntity(id)</text><polygon fill="#A80036" points="88,340.2969,78,344.2969,88,348.2969,84,344.2969" style="stroke: #A80036; stroke-width: 1.0;"/><line style="stroke: #A80036; stroke-width: 1.0; stroke-dasharray: 2.0,2.0;" x1="82" x2="772" y1="344.2969" y2="344.2969"/><text fill="#000000" font-family="sans-serif" font-size="13" lengthAdjust="spacingAndGlyphs" textLength="37" x="94" y="339.231">entity</text><polygon fill="#A80036" points="510,369.4297,520,373.4297,510,377.4297,514,373.4297" style="stroke: #A80036; stroke-width: 1.0;"/><line style="stroke: #A80036; stroke-width: 1.0;" x1="77" x2="516" y1="373.4297" y2="373.4297"/><text fill="#000000" font-family="sans-serif" font-size="13" lengthAdjust="spacingAndGlyphs" textLength="267" x="84" y="368.3638">bindEntityComponent(entity, component)</text><line style="stroke: #A80036; stroke-width: 1.0;" x1="532" x2="574" y1="402.5625" y2="402.5625"/><line style="stroke: #A80036; stroke-width: 1.0;" x1="574" x2="574" y1="402.5625" y2="415.5625"/><line style="stroke: #A80036; stroke-width: 1.0;" x1="533" x2="574" y1="415.5625" y2="415.5625"/><polygon fill="#A80036" points="543,411.5625,533,415.5625,543,419.5625,539,415.5625" style="stroke: #A80036; stroke-width: 1.0;"/><text fill="#000000" font-family="sans-serif" font-size="13" lengthAdjust="spacingAndGlyphs" textLength="227" x="539" y="397.4966">checkComponent(componentType)</text><path d="M10,430.5625 L76,430.5625 L76,437.5625 L66,447.5625 L10,447.5625 L10,430.5625 " fill="#EEEEEE" style="stroke: #000000; stroke-width: 1.0;"/><rect fill="none" height="132.3359" style="stroke: #000000; stroke-width: 2.0;" width="609.5" x="10" y="430.5625"/><text fill="#000000" font-family="sans-serif" font-size="13" font-weight="bold" lengthAdjust="spacingAndGlyphs" textLength="21" x="25" y="443.6294">alt</text><text fill="#000000" font-family="sans-serif" font-size="11" font-weight="bold" lengthAdjust="spacingAndGlyphs" textLength="61" x="91" y="442.7729">[success]</text><polygon fill="#A80036" points="351,464.8281,361,468.8281,351,472.8281,355,468.8281" style="stroke: #A80036; stroke-width: 1.0;"/><line style="stroke: #A80036; stroke-width: 1.0;" x1="77" x2="357" y1="468.8281" y2="468.8281"/><text fill="#000000" font-family="sans-serif" font-size="13" lengthAdjust="spacingAndGlyphs" textLength="262" x="84" y="463.7622">entitySignatureChange(entity, signature)</text><line style="stroke: #A80036; stroke-width: 1.0;" x1="373" x2="415" y1="497.9609" y2="497.9609"/><line style="stroke: #A80036; stroke-width: 1.0;" x1="415" x2="415" y1="497.9609" y2="510.9609"/><line style="stroke: #A80036; stroke-width: 1.0;" x1="374" x2="415" y1="510.9609" y2="510.9609"/><polygon fill="#A80036" points="384,506.9609,374,510.9609,384,514.9609,380,510.9609" style="stroke: #A80036; stroke-width: 1.0;"/><text fill="#000000" font-family="sans-serif" font-size="13" lengthAdjust="spacingAndGlyphs" textLength="114" x="380" y="492.895">RedistributeEntity</text><line style="stroke: #000000; stroke-width: 1.0; stroke-dasharray: 2.0,2.0;" x1="10" x2="619.5" y1="519.9609" y2="519.9609"/><text fill="#000000" font-family="sans-serif" font-size="11" font-weight="bold" lengthAdjust="spacingAndGlyphs" textLength="33" x="15" y="530.1714">[fail]</text><polygon fill="#A80036" points="88,550.8984,78,554.8984,88,558.8984,84,554.8984" style="stroke: #A80036; stroke-width: 1.0;"/><line style="stroke: #A80036; stroke-width: 1.0; stroke-dasharray: 2.0,2.0;" x1="82" x2="521" y1="554.8984" y2="554.8984"/><text fill="#000000" font-family="sans-serif" font-size="13" lengthAdjust="spacingAndGlyphs" textLength="156" x="94" y="549.8325">unregisteredComponent</text><polygon fill="#A80036" points="351,587.0313,361,591.0313,351,595.0313,355,591.0313" style="stroke: #A80036; stroke-width: 1.0;"/><line style="stroke: #A80036; stroke-width: 1.0;" x1="77" x2="357" y1="591.0313" y2="591.0313"/><text fill="#000000" font-family="sans-serif" font-size="13" lengthAdjust="spacingAndGlyphs" textLength="119" x="84" y="585.9653">updateAllSystem()</text><text fill="#000000" font-family="sans-serif" font-size="11" lengthAdjust="spacingAndGlyphs" textLength="94" x="378" y="623.2417">After some time</text><polygon fill="#A80036" points="351,656.9688,361,660.9688,351,664.9688,355,660.9688" style="stroke: #A80036; stroke-width: 1.0;"/><line style="stroke: #A80036; stroke-width: 1.0;" x1="77" x2="357" y1="660.9688" y2="660.9688"/><text fill="#000000" font-family="sans-serif" font-size="13" lengthAdjust="spacingAndGlyphs" textLength="151" x="84" y="655.9028">entityDestroyed(entity)</text><polygon fill="#A80036" points="510,686.1016,520,690.1016,510,694.1016,514,690.1016" style="stroke: #A80036; stroke-width: 1.0;"/><line style="stroke: #A80036; stroke-width: 1.0;" x1="77" x2="516" y1="690.1016" y2="690.1016"/><text fill="#000000" font-family="sans-serif" font-size="13" lengthAdjust="spacingAndGlyphs" textLength="151" x="84" y="685.0356">entityDestroyed(entity)</text><polygon fill="#A80036" points="761,715.2344,771,719.2344,761,723.2344,765,719.2344" style="stroke: #A80036; stroke-width: 1.0;"/><line style="stroke: #A80036; stroke-width: 1.0;" x1="77" x2="767" y1="719.2344" y2="719.2344"/><text fill="#000000" font-family="sans-serif" font-size="13" lengthAdjust="spacingAndGlyphs" textLength="151" x="84" y="714.1685">entityDestroyed(entity)</text><!--MD5=[7883e4a2095b9e58f75e01badd610c07]
@startuml
participant "Coordinator" as Coordinator
    participant "SystemManager" as SystemManager
    participant "ComponentManager" as ComponentManager
    participant "EntityManager" as EntityManager

    activate Coordinator
    activate SystemManager
    activate ComponentManager
    activate EntityManager


    Coordinator -> ComponentManager : registerComponent(componentType)

    Coordinator -> SystemManager : registerSystem(system)

    note right of Coordinator: signature = Set[componentType]

    ComponentManager -> ComponentManager : checkComponent(componentType)
    alt found
      ComponentManager - ->Coordinator : Some(component)
    else not Found
      ComponentManager - ->Coordinator : unregisteredComponent
    end

    Coordinator -> EntityManager : createEntity(id)
    EntityManager - ->  Coordinator : entity
    Coordinator -> ComponentManager : bindEntityComponent(entity, component)
    ComponentManager -> ComponentManager : checkComponent(componentType)

    alt success 
      Coordinator -> SystemManager : entitySignatureChange(entity, signature)
      SystemManager -> SystemManager : RedistributeEntity
    else fail
      ComponentManager - -> Coordinator : unregisteredComponent
    end

    Coordinator -> SystemManager : updateAllSystem()
    ...After some time...
    Coordinator -> SystemManager : entityDestroyed(entity)
    Coordinator -> ComponentManager : entityDestroyed(entity)
    Coordinator -> EntityManager : entityDestroyed(entity)
@enduml

PlantUML version 1.2020.20beta4(Unknown compile time)
(GPL source distribution)
Java Runtime: Java(TM) SE Runtime Environment
JVM: Java HotSpot(TM) 64-Bit Server VM
Default Encoding: UTF-8
Language: en
Country: US
--></g></svg>