<?xml version="1.0" encoding="UTF-8" standalone="no"?><svg xmlns="http://www.w3.org/2000/svg" xmlns:xlink="http://www.w3.org/1999/xlink" contentScriptType="application/ecmascript" contentStyleType="text/css" height="561px" preserveAspectRatio="none" style="width:451px;height:561px;" version="1.1" viewBox="0 0 451 561" width="451px" zoomAndPan="magnify"><defs><filter height="300%" id="f1whdbrvtkwyif" width="300%" x="-1" y="-1"><feGaussianBlur result="blurOut" stdDeviation="2.0"/><feColorMatrix in="blurOut" result="blurOut2" type="matrix" values="0 0 0 0 0 0 0 0 0 0 0 0 0 0 0 0 0 0 .4 0"/><feOffset dx="4.0" dy="4.0" in="blurOut2" result="blurOut3"/><feBlend in="SourceGraphic" in2="blurOut3" mode="normal"/></filter></defs><g><!--MD5=[f9e2e10b1766cf86e00c9124af6ab292]
cluster cloud1--><path d="M23.3039,23.7001 C26.5935,16.1471 33.0256,14.8378 39.0572,20.4088 C42.7127,14.4771 48.9707,13.9427 52.5411,20.5006 C54.3297,12.2435 61.272,11.246 66.6317,16.8776 C69.6527,9.8747 76.5727,9.8388 80.8333,15.486 C84.6421,9.0453 90.8077,7.856 94.9254,15.1695 C98.2545,6.3192 105.1918,6.4143 110.5404,13.1456 C115.0805,7.2597 119.325,6 124.0019,13.0027 C129.3634,7.2419 135.5462,7.7555 138.542,15.5418 C144.1384,10.5778 149.6236,11.5133 153.0183,18.2628 C158.2284,13.421 162.6875,13.7448 166.4981,19.9678 C170.4769,13.0012 177.8403,11.6233 181.819,19.9679 C191.9881,13.4813 199.213,17.0969 201.6244,28.5381 C202.4478,28.3478 203.0121,28.7671 202.7884,29.6616 C209.773,34.1022 210.4135,38.8348 203.4791,43.9482 C211.57,48.099 210.1618,52.6693 204.6847,57.9854 C212.1096,62.0889 213.1557,69.0565 204.961,73.4393 C210.2571,77.9835 211.4428,84.1993 203.483,87.3334 C211.6841,91.8313 213.2081,96.6393 205.4914,103.1574 C211.0822,106.9892 211.1216,111.8206 205.3093,115.4839 C212.44,120.1979 211.1695,127.3084 204.2793,131.0974 C209.8363,135.8676 210.5264,140.3251 204.1736,145.0048 C210.73,149.8206 212.6726,154.8636 204.5688,160.0642 C211.9386,165.8698 209.8775,170.7454 202.6541,174.6332 C209.8652,177.7847 209.6101,183.5839 204.3348,188.2739 C212.0826,198.8228 207.9268,208.0763 194.6244,208.5381 C196.3733,208.5145 196.981,209.4686 196.0672,211.0034 C192.2822,217.5933 185.1433,217.5062 181.0719,211.34 C178.228,217.9042 171.5967,219.6191 167.443,212.66 C161.6289,220.6523 156.833,219.3431 151.8668,211.8094 C148.2257,218.3344 142.5301,220.4753 137.5868,213.1522 C134.3727,219.6697 129.474,221.3023 124.3676,215.1224 C120.2323,222.5691 113.9308,221.3701 109.7352,215.1871 C105.0455,220.4449 99.1673,221.0588 95.9911,213.5569 C92.8879,221.4578 86.1377,220.6218 81.7963,214.8417 C76.4071,221.4798 72.0568,219.9418 67.7208,213.6916 C62.6248,219.7377 55.9269,220.5159 51.8133,212.5743 C46.6246,218.4908 40.4479,218.1163 37.2184,210.4666 C26.1651,216.8897 18.5388,214.7994 15.6244,201.5381 C16.4725,201.6224 16.6238,202.1241 16.1881,202.7876 C9.204,198.8083 8.7036,193.2714 15.776,188.8757 C9.3141,184.2501 9.7285,178.0512 16.5238,174.0964 C8.7126,169.9928 9.0914,162.904 16.9218,159.2189 C11.4693,154.9338 11.3064,149.8245 17.2353,145.8054 C9.2104,142.6961 9.3356,135.331 15.7584,130.7997 C8.7281,126.7314 9.7719,121.6088 15.6989,117.4826 C7.4769,112.8334 7.6385,106.5274 15.9362,102.1336 C9.5036,97.2489 9.2336,90.2533 17.2941,86.6386 C11.6601,82.0382 10.774,77.9999 17.4144,73.5121 C9.1476,70.4588 9.5981,63.7298 15.6437,58.9376 C9.4627,54.4576 10.0238,48.5272 16.3579,44.6737 C6,34.3394 11.3162,26.0039 22.6244,21.5381 C23.7846,21.9382 24.004,22.7152 23.3039,23.7001 " fill="#ADD8E6" filter="url(#f1whdbrvtkwyif)" style="stroke: #000000; stroke-width: 1.5;"/><text fill="#000000" font-family="sans-serif" font-size="14" font-weight="bold" lengthAdjust="spacingAndGlyphs" textLength="62" x="77.6244" y="39.5332">Client 1</text><!--MD5=[257a4c41634b7f1ee62a474ea7f0e5e4]
cluster cloud2--><path d="M249.3039,23.7001 C252.5935,16.1471 259.0256,14.8378 265.0572,20.4088 C268.7127,14.4771 274.9707,13.9427 278.5411,20.5006 C280.3297,12.2435 287.272,11.246 292.6317,16.8776 C295.6527,9.8747 302.5727,9.8388 306.8333,15.486 C310.6421,9.0453 316.8077,7.856 320.9254,15.1695 C324.2545,6.3192 331.1918,6.4143 336.5404,13.1456 C341.0805,7.2597 345.325,6 350.0019,13.0027 C355.3634,7.2419 361.5462,7.7555 364.542,15.5418 C370.1384,10.5778 375.6236,11.5133 379.0183,18.2628 C384.2284,13.421 388.6875,13.7448 392.4981,19.9678 C396.4769,13.0012 403.8403,11.6233 407.819,19.9679 C417.9881,13.4813 425.213,17.0969 427.6244,28.5381 C428.4478,28.3478 429.0121,28.7671 428.7884,29.6616 C435.773,34.1022 436.4135,38.8348 429.4791,43.9482 C437.57,48.099 436.1618,52.6693 430.6847,57.9854 C438.1096,62.0889 439.1557,69.0565 430.961,73.4393 C436.2571,77.9835 437.4428,84.1993 429.483,87.3334 C437.6841,91.8313 439.2081,96.6393 431.4914,103.1574 C437.0822,106.9892 437.1216,111.8206 431.3093,115.4839 C438.44,120.1979 437.1695,127.3084 430.2793,131.0974 C435.8363,135.8676 436.5264,140.3251 430.1736,145.0048 C436.73,149.8206 438.6726,154.8636 430.5688,160.0642 C437.9386,165.8698 435.8775,170.7454 428.6541,174.6332 C435.8652,177.7847 435.6101,183.5839 430.3348,188.2739 C438.0826,198.8228 433.9268,208.0763 420.6244,208.5381 C422.3733,208.5145 422.981,209.4686 422.0672,211.0034 C418.2822,217.5933 411.1433,217.5062 407.0719,211.34 C404.228,217.9042 397.5967,219.6191 393.443,212.66 C387.6289,220.6523 382.833,219.3431 377.8668,211.8094 C374.2257,218.3344 368.5301,220.4753 363.5868,213.1522 C360.3727,219.6697 355.474,221.3023 350.3676,215.1224 C346.2323,222.5691 339.9308,221.3701 335.7352,215.1871 C331.0455,220.4449 325.1673,221.0588 321.9911,213.5569 C318.8879,221.4578 312.1377,220.6218 307.7963,214.8417 C302.4071,221.4798 298.0568,219.9418 293.7208,213.6916 C288.6248,219.7377 281.9269,220.5159 277.8133,212.5743 C272.6246,218.4908 266.4479,218.1163 263.2184,210.4666 C252.1651,216.8897 244.5388,214.7994 241.6244,201.5381 C242.4725,201.6224 242.6238,202.1241 242.1881,202.7876 C235.204,198.8083 234.7036,193.2714 241.776,188.8757 C235.3141,184.2501 235.7285,178.0512 242.5238,174.0964 C234.7126,169.9928 235.0914,162.904 242.9218,159.2189 C237.4693,154.9338 237.3064,149.8245 243.2353,145.8054 C235.2104,142.6961 235.3356,135.331 241.7584,130.7997 C234.7281,126.7314 235.7719,121.6088 241.6989,117.4826 C233.4769,112.8334 233.6385,106.5274 241.9362,102.1336 C235.5036,97.2489 235.2336,90.2533 243.2941,86.6386 C237.6601,82.0382 236.774,77.9999 243.4144,73.5121 C235.1476,70.4588 235.5981,63.7298 241.6437,58.9376 C235.4627,54.4576 236.0238,48.5272 242.3579,44.6737 C232,34.3394 237.3162,26.0039 248.6244,21.5381 C249.7846,21.9382 250.004,22.7152 249.3039,23.7001 " fill="#ADD8E6" filter="url(#f1whdbrvtkwyif)" style="stroke: #000000; stroke-width: 1.5;"/><text fill="#000000" font-family="sans-serif" font-size="14" font-weight="bold" lengthAdjust="spacingAndGlyphs" textLength="62" x="303.6244" y="39.5332">Client 2</text><!--MD5=[1e7d017ba59770fb8190e2d97c0ce041]
cluster cloudS--><rect fill="#FFFFFF" filter="url(#f1whdbrvtkwyif)" height="203" style="stroke: #000000; stroke-width: 1.5;" width="202" x="120.6244" y="341.5381"/><text fill="#000000" font-family="sans-serif" font-size="14" font-weight="bold" lengthAdjust="spacingAndGlyphs" textLength="51" x="196.1244" y="356.5332">Server</text><!--MD5=[03f3b4fce5584e68b0679770c5e0ac31]
entity ClientActor1--><rect fill="#FEFECE" filter="url(#f1whdbrvtkwyif)" height="46.2969" style="stroke: #A80036; stroke-width: 1.5;" width="127" x="59.1244" y="154.5381"/><rect fill="#FEFECE" height="10" style="stroke: #A80036; stroke-width: 1.5;" width="15" x="166.1244" y="159.5381"/><rect fill="#FEFECE" height="2" style="stroke: #A80036; stroke-width: 1.5;" width="4" x="164.1244" y="161.5381"/><rect fill="#FEFECE" height="2" style="stroke: #A80036; stroke-width: 1.5;" width="4" x="164.1244" y="165.5381"/><text fill="#000000" font-family="sans-serif" font-size="14" lengthAdjust="spacingAndGlyphs" textLength="87" x="74.1244" y="187.5332">Client Actor</text><!--MD5=[6fa167b440f6fb66b1b0330a63436afe]
entity core1--><rect fill="#FEFECE" filter="url(#f1whdbrvtkwyif)" height="46.2969" style="stroke: #A80036; stroke-width: 1.5;" width="169" x="24.1244" y="48.5381"/><rect fill="#FEFECE" height="10" style="stroke: #A80036; stroke-width: 1.5;" width="15" x="173.1244" y="53.5381"/><rect fill="#FEFECE" height="2" style="stroke: #A80036; stroke-width: 1.5;" width="4" x="171.1244" y="55.5381"/><rect fill="#FEFECE" height="2" style="stroke: #A80036; stroke-width: 1.5;" width="4" x="171.1244" y="59.5381"/><text fill="#000000" font-family="sans-serif" font-size="14" lengthAdjust="spacingAndGlyphs" textLength="129" x="39.1244" y="81.5332">Core Architecture</text><!--MD5=[35ff3fce0a6f7ba56198e70ea9d0a41b]
entity ClientActor2--><rect fill="#FEFECE" filter="url(#f1whdbrvtkwyif)" height="46.2969" style="stroke: #A80036; stroke-width: 1.5;" width="127" x="257.1244" y="154.5381"/><rect fill="#FEFECE" height="10" style="stroke: #A80036; stroke-width: 1.5;" width="15" x="364.1244" y="159.5381"/><rect fill="#FEFECE" height="2" style="stroke: #A80036; stroke-width: 1.5;" width="4" x="362.1244" y="161.5381"/><rect fill="#FEFECE" height="2" style="stroke: #A80036; stroke-width: 1.5;" width="4" x="362.1244" y="165.5381"/><text fill="#000000" font-family="sans-serif" font-size="14" lengthAdjust="spacingAndGlyphs" textLength="87" x="272.1244" y="187.5332">Client Actor</text><!--MD5=[456988fec64c9e825ae5a28cfab127a7]
entity core2--><rect fill="#FEFECE" filter="url(#f1whdbrvtkwyif)" height="46.2969" style="stroke: #A80036; stroke-width: 1.5;" width="169" x="250.1244" y="48.5381"/><rect fill="#FEFECE" height="10" style="stroke: #A80036; stroke-width: 1.5;" width="15" x="399.1244" y="53.5381"/><rect fill="#FEFECE" height="2" style="stroke: #A80036; stroke-width: 1.5;" width="4" x="397.1244" y="55.5381"/><rect fill="#FEFECE" height="2" style="stroke: #A80036; stroke-width: 1.5;" width="4" x="397.1244" y="59.5381"/><text fill="#000000" font-family="sans-serif" font-size="14" lengthAdjust="spacingAndGlyphs" textLength="129" x="265.1244" y="81.5332">Core Architecture</text><!--MD5=[15ca4a4e1752d084f5e9a9f6f7411585]
entity ServerActor--><rect fill="#FEFECE" filter="url(#f1whdbrvtkwyif)" height="46.2969" style="stroke: #A80036; stroke-width: 1.5;" width="127" x="158.1244" y="376.5381"/><rect fill="#FEFECE" height="10" style="stroke: #A80036; stroke-width: 1.5;" width="15" x="265.1244" y="381.5381"/><rect fill="#FEFECE" height="2" style="stroke: #A80036; stroke-width: 1.5;" width="4" x="263.1244" y="383.5381"/><rect fill="#FEFECE" height="2" style="stroke: #A80036; stroke-width: 1.5;" width="4" x="263.1244" y="387.5381"/><text fill="#000000" font-family="sans-serif" font-size="14" lengthAdjust="spacingAndGlyphs" textLength="87" x="173.1244" y="409.5332">ServerActor</text><!--MD5=[0d482ad21d5c7c11aa976e45da5ecfe6]
entity core--><rect fill="#FEFECE" filter="url(#f1whdbrvtkwyif)" height="46.2969" style="stroke: #A80036; stroke-width: 1.5;" width="169" x="137.1244" y="482.5381"/><rect fill="#FEFECE" height="10" style="stroke: #A80036; stroke-width: 1.5;" width="15" x="286.1244" y="487.5381"/><rect fill="#FEFECE" height="2" style="stroke: #A80036; stroke-width: 1.5;" width="4" x="284.1244" y="489.5381"/><rect fill="#FEFECE" height="2" style="stroke: #A80036; stroke-width: 1.5;" width="4" x="284.1244" y="493.5381"/><text fill="#000000" font-family="sans-serif" font-size="14" lengthAdjust="spacingAndGlyphs" textLength="129" x="152.1244" y="515.5332">Core Architecture</text><!--MD5=[be31086222f8c6b9bf5a6e79f187cb6d]
entity ClientMailbox1--><ellipse cx="122.6244" cy="288.5381" fill="#FEFECE" filter="url(#f1whdbrvtkwyif)" rx="8" ry="8" style="stroke: #A80036; stroke-width: 2.0;"/><text fill="#000000" font-family="sans-serif" font-size="13" lengthAdjust="spacingAndGlyphs" textLength="48" x="98.6244" y="317.605">Mailbox</text><!--MD5=[311816ae4dd4d6d8331219c57f08adbe]
entity ClientMailbox2--><ellipse cx="320.6244" cy="288.5381" fill="#FEFECE" filter="url(#f1whdbrvtkwyif)" rx="8" ry="8" style="stroke: #A80036; stroke-width: 2.0;"/><text fill="#000000" font-family="sans-serif" font-size="13" lengthAdjust="spacingAndGlyphs" textLength="48" x="296.6244" y="317.605">Mailbox</text><!--MD5=[90ada3bf7fe2c2a98016ebff2494a379]
entity ServerMailbox--><ellipse cx="221.6244" cy="288.5381" fill="#FEFECE" filter="url(#f1whdbrvtkwyif)" rx="8" ry="8" style="stroke: #A80036; stroke-width: 2.0;"/><text fill="#000000" font-family="sans-serif" font-size="13" lengthAdjust="spacingAndGlyphs" textLength="48" x="197.6244" y="317.605">Mailbox</text><!--MD5=[024cbd50a31614ddd40ab49a71fc201c]
link core1 to ClientActor1--><path d="M111.5934,94.5941 C113.4314,108.2441 115.8304,126.0711 117.9224,141.6101 " fill="none" id="core1-to-ClientActor1" style="stroke: #A80036; stroke-width: 1.0;"/><polygon fill="#A80036" points="119.6594,154.5141,122.8232,148.0341,118.0586,142.6214,114.8947,149.1014,119.6594,154.5141" style="stroke: #A80036; stroke-width: 1.0;"/><!--MD5=[599094ec3df400de021054baacedbd41]
link ClientActor1 to ClientMailbox1--><path d="M122.6244,200.5961 C122.6244,224.9811 122.6244,262.9901 122.6244,279.4681 " fill="none" id="ClientActor1-ClientMailbox1" style="stroke: #A80036; stroke-width: 1.0;"/><!--MD5=[8bc7c5d77201118a5a4b70bf3a6249f4]
link core2 to ClientActor2--><path d="M331.6554,94.5941 C329.8174,108.2441 327.4184,126.0711 325.3264,141.6101 " fill="none" id="core2-to-ClientActor2" style="stroke: #A80036; stroke-width: 1.0;"/><polygon fill="#A80036" points="323.5894,154.5141,328.354,149.1014,325.1902,142.6214,320.4256,148.0341,323.5894,154.5141" style="stroke: #A80036; stroke-width: 1.0;"/><!--MD5=[8b5fceb51d57f5dea9017bc89cfe3d24]
link ClientActor2 to ClientMailbox2--><path d="M320.6244,200.5961 C320.6244,224.9811 320.6244,262.9901 320.6244,279.4681 " fill="none" id="ClientActor2-ClientMailbox2" style="stroke: #A80036; stroke-width: 1.0;"/><!--MD5=[de93a7dccbf9ef2398b0ff57dcec7780]
reverse link ServerActor to core--><path d="M221.6244,435.9741 C221.6244,451.4041 221.6244,469.008 221.6244,482.5142 " fill="none" id="ServerActor-backto-core" style="stroke: #A80036; stroke-width: 1.0;"/><polygon fill="#A80036" points="221.6244,422.5941,217.6244,428.5941,221.6244,434.5941,225.6244,428.5941,221.6244,422.5941" style="stroke: #A80036; stroke-width: 1.0;"/><!--MD5=[cb57a22f86fd4931ee8c65b037efec13]
link ServerMailbox to ServerActor--><path d="M221.6244,297.7311 C221.6244,314.2671 221.6244,352.1271 221.6244,376.4541 " fill="none" id="ServerMailbox-ServerActor" style="stroke: #A80036; stroke-width: 1.0;"/><!--MD5=[50256660e7ec53cca0e385029b5bdc61]
link ClientActor2 to ServerMailbox--><path d="M300.5904,200.5961 C279.9994,223.2661 248.7134,257.7131 232.3904,275.6851 " fill="none" id="ClientActor2-to-ServerMailbox" style="stroke: #A80036; stroke-width: 1.0; stroke-dasharray: 7.0,7.0;"/><polygon fill="#A80036" points="228.9544,279.4681,237.9661,275.4947,232.3158,275.7667,232.0438,270.1164,228.9544,279.4681" style="stroke: #A80036; stroke-width: 1.0;"/><!--MD5=[5b9b8eaa6a19869e0cd184941b0a6a5e]
link ClientActor1 to ServerMailbox--><path d="M142.6584,200.5961 C163.2494,223.2661 194.5354,257.7131 210.8584,275.6851 " fill="none" id="ClientActor1-to-ServerMailbox" style="stroke: #A80036; stroke-width: 1.0; stroke-dasharray: 7.0,7.0;"/><polygon fill="#A80036" points="214.2944,279.4681,211.2049,270.1164,210.9329,275.7667,205.2826,275.4947,214.2944,279.4681" style="stroke: #A80036; stroke-width: 1.0;"/><!--MD5=[39dec683aca383bc5e143b7cbf87b5d8]
reverse link ClientMailbox2 to ServerActor--><path d="M309.7394,301.5231 C293.3894,319.5241 262.2234,353.8381 241.6824,376.4541 " fill="none" id="ClientMailbox2-backto-ServerActor" style="stroke: #A80036; stroke-width: 1.0; stroke-dasharray: 7.0,7.0;"/><polygon fill="#A80036" points="313.1834,297.7311,304.1708,301.7027,309.8212,301.4319,310.092,307.0822,313.1834,297.7311" style="stroke: #A80036; stroke-width: 1.0;"/><!--MD5=[99525c36810e81d5401b4e4216e94ddf]
reverse link ClientMailbox1 to ServerActor--><path d="M133.5094,301.5231 C149.8594,319.5241 181.0254,353.8381 201.5664,376.4541 " fill="none" id="ClientMailbox1-backto-ServerActor" style="stroke: #A80036; stroke-width: 1.0; stroke-dasharray: 7.0,7.0;"/><polygon fill="#A80036" points="130.0654,297.7311,133.1568,307.0822,133.4276,301.4319,139.078,301.7027,130.0654,297.7311" style="stroke: #A80036; stroke-width: 1.0;"/><!--MD5=[b4facf1471d9f7ad765d4b9fef4d6949]
@startuml
() Mailbox as ClientMailbox1
() Mailbox as ClientMailbox2
() Mailbox as ServerMailbox

cloud "Client 1" as cloud1 {
    [Client Actor] as ClientActor1
    [Core Architecture] as core1
    ClientActor1 *-up- core1
    ClientMailbox1 -up- ClientActor1
}

cloud "Client 2" as cloud2 {
    [Client Actor] as ClientActor2
    [Core Architecture] as core2
    ClientActor2 *-up- core2
    ClientMailbox2 -up- ClientActor2
}

rectangle "Server" as cloudS {
    [ServerActor] as ServerActor
    [Core Architecture] as core
    ServerActor *-down- core
    ServerMailbox -down- ServerActor
}


ClientActor2 ..> ServerMailbox
ClientActor1 ..> ServerMailbox
ServerActor .up.> ClientMailbox2
ServerActor .up.> ClientMailbox1 






skinparam {
    CloudBackgroundColor lightblue
    InterfaceFontSize 13
}
@enduml

PlantUML version 1.2020.17beta5(Unknown compile time)
(GPL source distribution)
Java Runtime: Java(TM) SE Runtime Environment
JVM: Java HotSpot(TM) 64-Bit Server VM
Default Encoding: UTF-8
Language: en
Country: US
--></g></svg>